<svg version="1.1" id="Layer_1" xmlns="http://www.w3.org/2000/svg" xmlns:xlink="http://www.w3.org/1999/xlink" x="0px" y="0px" width="100%" height="100%" viewBox="0 0 285.39 51.594" enable-background="new 0 0 285.39 51.594" xml:space="preserve" fit="" preserveAspectRatio="xMidYMid meet" focusable="false">
<g>
	<g>
		<path fill="#25C3EE" d="M28.803,1.246L39.67,12.114c-4.73-4.73-14.736-2.404-22.344,5.205C9.71,24.935,7.384,34.94,12.115,39.67
			L1.246,28.802c-1.662-1.662-1.662-4.349,0-6.01L22.792,1.246C24.453-0.415,27.141-0.416,28.803,1.246z"></path>
		<path fill="#F8961D" d="M24.956,40.844l6.675,6.675l-2.828,2.829c-1.662,1.661-4.35,1.661-6.011,0L12.115,39.67
			C15.006,42.562,19.871,42.818,24.956,40.844z"></path>
		<path fill="#ED1B67" d="M39.67,12.114l10.678,10.678c1.662,1.661,1.662,4.349,0,6.01L36.934,42.216l-5.268-5.268
			c0.961-0.75,1.902-1.577,2.807-2.482C42.082,26.858,44.408,16.852,39.67,12.114z"></path>
	</g>
	<g>
		<path d="M81.177,44.701l-2.724-4.486c-0.614,0.106-1.322,0.16-2.123,0.16c-2.67,0-5.12-0.627-7.349-1.882
			c-2.23-1.255-3.999-2.99-5.307-5.207c-1.309-2.216-1.962-4.712-1.962-7.489c0-2.777,0.654-5.273,1.962-7.489
			c1.308-2.216,3.077-3.945,5.307-5.187c2.229-1.242,4.679-1.862,7.349-1.862c2.669,0,5.113,0.621,7.329,1.862
			c2.216,1.241,3.971,2.971,5.267,5.187c1.295,2.216,1.942,4.712,1.942,7.489c0,2.27-0.44,4.359-1.322,6.268
			c-0.881,1.91-2.096,3.532-3.645,4.866l5.768,7.77H81.177z M72.206,30.383c0.961,1.135,2.336,1.702,4.125,1.702
			c1.762,0,3.124-0.567,4.085-1.702c0.961-1.135,1.442-2.664,1.442-4.586c0-1.949-0.48-3.491-1.442-4.626
			c-0.961-1.134-2.323-1.702-4.085-1.702c-1.789,0-3.164,0.568-4.125,1.702c-0.961,1.135-1.442,2.677-1.442,4.626
			C70.764,27.72,71.245,29.249,72.206,30.383z"></path>
		<path d="M117.983,17.507v22.588h-8.891v-3.444c-0.695,1.068-1.622,1.936-2.784,2.604s-2.543,1.001-4.145,1.001
			c-2.59,0-4.613-0.867-6.068-2.603c-1.456-1.735-2.183-4.085-2.183-7.049V17.507h8.851v11.975c0,1.068,0.287,1.916,0.861,2.543
			c0.574,0.628,1.341,0.941,2.303,0.941c0.987,0,1.762-0.313,2.323-0.941c0.561-0.627,0.841-1.475,0.841-2.543V17.507H117.983z"></path>
		<path d="M122.007,22.613c0.814-1.749,1.929-3.084,3.344-4.005c1.415-0.921,3.004-1.382,4.766-1.382c1.468,0,2.736,0.3,3.805,0.901
			c1.067,0.601,1.882,1.421,2.443,2.463v-3.084h8.851v22.588h-8.851v-3.084c-0.561,1.042-1.375,1.862-2.443,2.463
			c-1.068,0.601-2.337,0.901-3.805,0.901c-1.762,0-3.351-0.46-4.766-1.382c-1.416-0.921-2.53-2.256-3.344-4.005
			c-0.815-1.749-1.222-3.811-1.222-6.188S121.192,24.362,122.007,22.613z M135.444,25.998c-0.615-0.667-1.402-1.001-2.363-1.001
			c-0.961,0-1.749,0.334-2.363,1.001c-0.614,0.668-0.921,1.602-0.921,2.804c0,1.201,0.307,2.136,0.921,2.803
			c0.614,0.668,1.402,1.001,2.363,1.001c0.961,0,1.749-0.333,2.363-1.001c0.614-0.667,0.921-1.602,0.921-2.803
			C136.365,27.6,136.058,26.666,135.444,25.998z"></path>
		<path d="M149.241,22.613c0.814-1.749,1.929-3.084,3.344-4.005c1.415-0.921,3.004-1.382,4.766-1.382c1.468,0,2.729,0.3,3.785,0.901
			c1.054,0.601,1.862,1.421,2.423,2.463V10.458h8.891v29.637h-8.891v-3.084c-0.561,1.042-1.369,1.862-2.423,2.463
			c-1.055,0.601-2.317,0.901-3.785,0.901c-1.762,0-3.351-0.46-4.766-1.382c-1.416-0.921-2.53-2.256-3.344-4.005
			c-0.815-1.749-1.222-3.811-1.222-6.188S148.426,24.362,149.241,22.613z M162.678,25.998c-0.615-0.667-1.402-1.001-2.363-1.001
			c-0.961,0-1.749,0.334-2.363,1.001c-0.614,0.668-0.921,1.602-0.921,2.804c0,1.201,0.307,2.136,0.921,2.803
			c0.614,0.668,1.402,1.001,2.363,1.001c0.961,0,1.749-0.333,2.363-1.001c0.614-0.667,0.921-1.602,0.921-2.803
			C163.599,27.6,163.292,26.666,162.678,25.998z"></path>
		<path d="M188.67,18.528c1.308-0.787,2.669-1.182,4.085-1.182v9.492h-2.523c-1.682,0-2.917,0.294-3.705,0.881
			c-0.788,0.587-1.182,1.629-1.182,3.124v9.251h-8.891V17.507h8.891v4.166C186.253,20.364,187.362,19.316,188.67,18.528z"></path>
		<path d="M195.919,14.463c-0.935-0.828-1.402-1.869-1.402-3.124c0-1.282,0.467-2.343,1.402-3.184
			c0.934-0.841,2.176-1.262,3.725-1.262c1.522,0,2.75,0.42,3.685,1.262c0.934,0.841,1.402,1.902,1.402,3.184
			c0,1.255-0.468,2.296-1.402,3.124c-0.935,0.828-2.163,1.241-3.685,1.241C198.095,15.705,196.854,15.291,195.919,14.463z
			 M204.049,17.507v22.588h-8.891V17.507H204.049z"></path>
		<path d="M229.942,19.95c1.455,1.736,2.183,4.085,2.183,7.049v13.096h-8.851V28.12c0-1.067-0.288-1.916-0.861-2.543
			c-0.574-0.627-1.342-0.941-2.303-0.941c-0.988,0-1.762,0.314-2.323,0.941c-0.561,0.627-0.841,1.476-0.841,2.543v11.975h-8.891
			V17.507h8.891v3.444c0.694-1.067,1.622-1.936,2.784-2.603c1.161-0.667,2.543-1.001,4.145-1.001
			C226.463,17.347,228.486,18.215,229.942,19.95z"></path>
		<path d="M257.716,30.363h-14.298c0.133,1.95,0.948,2.924,2.443,2.924c0.961,0,1.655-0.44,2.083-1.322h9.412
			c-0.32,1.602-0.995,3.038-2.022,4.306c-1.028,1.269-2.323,2.27-3.885,3.004s-3.278,1.101-5.146,1.101
			c-2.243,0-4.239-0.467-5.987-1.402c-1.749-0.934-3.111-2.276-4.085-4.025c-0.975-1.749-1.462-3.798-1.462-6.147
			s0.487-4.399,1.462-6.148c0.975-1.749,2.336-3.09,4.085-4.025c1.748-0.935,3.745-1.402,5.987-1.402s4.238,0.46,5.987,1.382
			c1.749,0.921,3.11,2.236,4.085,3.945c0.974,1.709,1.461,3.725,1.461,6.048C257.836,29.215,257.796,29.802,257.716,30.363z
			 M248.825,26.478c0-0.747-0.24-1.314-0.721-1.702c-0.48-0.387-1.082-0.581-1.802-0.581c-1.576,0-2.497,0.761-2.764,2.283H248.825z
			"></path>
		<path d="M275.458,40.095l-3.805-5.086l-2.843,5.086h-9.772l7.57-11.895l-7.97-10.693h9.933l3.805,5.126l2.883-5.126h9.772
			l-7.81,11.615l8.17,10.974H275.458z"></path>
	</g>
</g>
</svg>